{
 "cells": [
  {
   "cell_type": "code",
   "execution_count": 1,
   "metadata": {},
   "outputs": [
    {
     "name": "stdout",
     "output_type": "stream",
     "text": [
      "{\n",
      "  \"scenes\": [\n",
      "    {\n",
      "      \"visual\": \"Nahaufnahme eines PowerLine Webcast 3 Adapters\",\n",
      "      \"audio\": \"Um die Datenübertragung über das Stromnetz zu verschlüsseln, drücken sie nun am ersten Gerät für etwa 1-2 Sekunden den Verschlüsselungsknopf. Falls die Power LED nicht leuchtet, obwohl alle Bedienungsanweisungen ordnungsgemäß befolgt wurden, stecken sie den Adapter in eine andere Steckdose. Achtung! Es besteht Stromschlaggefahr!\"\n",
      "    }\n",
      "  ]\n",
      "}"
     ]
    }
   ],
   "source": [
    "from manual_influencer import constants, script_generator\n",
    "\n",
    "mjson = script_generator.generate_script(text=constants.TEXT_AND_PDF_TO_SCENES_PROMPT)"
   ]
  },
  {
   "cell_type": "code",
   "execution_count": 2,
   "metadata": {
    "tags": []
   },
   "outputs": [],
   "source": [
    "import json\n",
    "data = json.loads(mjson)"
   ]
  },
  {
   "cell_type": "code",
   "execution_count": 3,
   "metadata": {
    "tags": []
   },
   "outputs": [],
   "source": [
    "from google import genai\n",
    "from google.genai import types\n",
    "import base64\n",
    "\n",
    "def generate(prompt):\n",
    "    client = genai.Client(\n",
    "      vertexai=True,\n",
    "      project=\"bliss-hack25fra-9587\",\n",
    "      location=\"global\",\n",
    "    )\n",
    "\n",
    "    si_text1 = \"\"\"make an english description of an image matching this scene description. black and white, rough sketch, cartoonish style. only answer with the description. no other text.\"\"\"\n",
    "\n",
    "    model = \"gemini-2.0-flash-001\"\n",
    "    contents = [\n",
    "        types.Content(\n",
    "          role=\"user\",\n",
    "          parts=[\n",
    "            types.Part.from_text(text=prompt)\n",
    "          ]\n",
    "        ),\n",
    "    ]\n",
    "    generate_content_config = types.GenerateContentConfig(\n",
    "        temperature = 1,\n",
    "        top_p = 0.95,\n",
    "        max_output_tokens = 8192,\n",
    "        response_modalities = [\"TEXT\"],\n",
    "        safety_settings = [types.SafetySetting(\n",
    "          category=\"HARM_CATEGORY_HATE_SPEECH\",\n",
    "          threshold=\"OFF\"\n",
    "        ),types.SafetySetting(\n",
    "          category=\"HARM_CATEGORY_DANGEROUS_CONTENT\",\n",
    "          threshold=\"OFF\"\n",
    "        ),types.SafetySetting(\n",
    "          category=\"HARM_CATEGORY_SEXUALLY_EXPLICIT\",\n",
    "          threshold=\"OFF\"\n",
    "        ),types.SafetySetting(\n",
    "          category=\"HARM_CATEGORY_HARASSMENT\",\n",
    "          threshold=\"OFF\"\n",
    "        )],\n",
    "        system_instruction=[types.Part.from_text(text=si_text1)],\n",
    "    )\n",
    "\n",
    "    mstr = ''\n",
    "\n",
    "    for chunk in client.models.generate_content_stream(\n",
    "        model = model,\n",
    "        contents = contents,\n",
    "        config = generate_content_config,\n",
    "        ):\n",
    "        print(chunk.text, end=\"\")\n",
    "        mstr += chunk.text\n",
    "\n",
    "    return mstr\n",
    "    \n",
    "\n",
    "#generate()"
   ]
  },
  {
   "cell_type": "code",
   "execution_count": 4,
   "metadata": {
    "tags": []
   },
   "outputs": [],
   "source": [
    "from vertexai.preview.vision_models import ImageGenerationModel\n",
    "import vertexai\n",
    "\n",
    "#pmt = \"A close-up, roughly sketched, black and white cartoon drawing of a powerline adapter, suggesting a simple, perhaps technical illustration.\"\n",
    "def generate_image(prompt, filename):\n",
    "    print(\"Prompt: \" + prompt)\n",
    "    vertexai.init(project=\"bliss-hack25fra-9587\", location=\"us-central1\")\n",
    "    generation_model = ImageGenerationModel.from_pretrained(\"imagen-3.0-generate-002\")\n",
    "\n",
    "    images = generation_model.generate_images(\n",
    "        prompt=prompt,\n",
    "        number_of_images=4,\n",
    "        aspect_ratio=\"9:16\",\n",
    "        negative_prompt=\"\",\n",
    "        person_generation=\"\",\n",
    "        safety_filter_level=\"\",\n",
    "        add_watermark=True,\n",
    "    )\n",
    "\n",
    "    images[0].save(filename)"
   ]
  },
  {
   "cell_type": "code",
   "execution_count": 5,
   "metadata": {
    "tags": []
   },
   "outputs": [],
   "source": [
    "import cv2\n",
    "import os\n",
    "import subprocess\n",
    "import imageio_ffmpeg\n",
    "import ffmpeg\n",
    "\n",
    "def generate_video(image_folder = 'data/images', audio_file = './data/synthesis.wav', output_file = './data/out.mp4'):\n",
    "    try:\n",
    "        os.remove('./finished_video.mp4')\n",
    "        os.remove('./video.avi')\n",
    "        os.remove('./video.mp4')\n",
    "    except:\n",
    "        pass\n",
    "\n",
    "    images = [img for img in os.listdir(image_folder) if img.endswith(\".png\")]\n",
    "    frame = cv2.imread(os.path.join(image_folder, images[0]))\n",
    "    height, width, layers = frame.shape\n",
    "\n",
    "    video = cv2.VideoWriter('./video.avi', 0, 0.25, (width,height))\n",
    "\n",
    "    for image in images:\n",
    "        video.write(cv2.imread(os.path.join(image_folder, image)))\n",
    "\n",
    "    #cv2.destroyAllWindows()\n",
    "    video.release()\n",
    "\n",
    "\n",
    "\n",
    "    ffmpeg_exe = imageio_ffmpeg.get_ffmpeg_exe()\n",
    "    subprocess.run([\n",
    "        ffmpeg_exe,\n",
    "        '-y',               # overwrite output if exists\n",
    "        '-i', 'video.avi',  # input video\n",
    "        '-c:v', 'libx264',  # video codec\n",
    "        '-c:a', 'aac',      # audio codec\n",
    "        '-shortest',        # finish when the shorter stream ends\n",
    "        'video.mp4'         # output file\n",
    "    ])\n",
    "    \n",
    "    subprocess.run([\n",
    "        ffmpeg_exe,\n",
    "        '-y',\n",
    "        '-i', 'video.mp4',\n",
    "        '-i', audio_file,\n",
    "        '-c:v', 'copy',\n",
    "        '-c:a', 'aac',\n",
    "        '-shortest',\n",
    "        output_file\n",
    "    ])\n",
    "\n",
    "    #input_video = ffmpeg.input('./video.mp4')\n",
    "\n",
    "    #input_audio = ffmpeg.input(audio_file)\n",
    "\n",
    "    #ffmpeg.concat(input_video, input_audio, v=1, a=1).output(output_file).run(cmd=ffmpeg_exe)\n",
    "    os.remove('./video.avi')\n",
    "    os.remove('./video.mp4')"
   ]
  },
  {
   "cell_type": "code",
   "execution_count": 6,
   "metadata": {
    "tags": []
   },
   "outputs": [],
   "source": [
    "import subprocess\n",
    "import json\n",
    "import wave\n",
    "import contextlib\n",
    "from mutagen.mp3 import MP3\n",
    "\n",
    "def get_audio_duration(filepath):\n",
    "    audio = MP3(filepath)\n",
    "    print(audio.info.length)\n",
    "    return audio.info.length"
   ]
  },
  {
   "cell_type": "code",
   "execution_count": 7,
   "metadata": {
    "tags": []
   },
   "outputs": [],
   "source": [
    "import ffmpeg\n",
    "import imageio_ffmpeg\n",
    "import os\n",
    "\n",
    "def concat_videos(video_paths, output_path='concatenated.mp4'):\n",
    "    # Create the concat input text file\n",
    "    with open('concat_list.txt', 'w') as f:\n",
    "        for path in video_paths:\n",
    "            f.write(f\"file '{os.path.abspath(path)}'\\n\")\n",
    "\n",
    "    ffmpeg_exe = imageio_ffmpeg.get_ffmpeg_exe()\n",
    "\n",
    "    # Run ffmpeg concat\n",
    "    subprocess.run([\n",
    "        ffmpeg_exe,\n",
    "        '-f', 'concat',\n",
    "        '-safe', '0',\n",
    "        '-i', 'concat_list.txt',\n",
    "        '-c', 'copy',\n",
    "        output_path\n",
    "    ])\n",
    "\n",
    "    os.remove('concat_list.txt')"
   ]
  },
  {
   "cell_type": "code",
   "execution_count": 8,
   "metadata": {
    "tags": []
   },
   "outputs": [
    {
     "name": "stdout",
     "output_type": "stream",
     "text": [
      "{'visual': 'Nahaufnahme eines PowerLine Webcast 3 Adapters', 'audio': 'Um die Datenübertragung über das Stromnetz zu verschlüsseln, drücken sie nun am ersten Gerät für etwa 1-2 Sekunden den Verschlüsselungsknopf. Falls die Power LED nicht leuchtet, obwohl alle Bedienungsanweisungen ordnungsgemäß befolgt wurden, stecken sie den Adapter in eine andere Steckdose. Achtung! Es besteht Stromschlaggefahr!'}\n",
      "A close-up, roughly sketched, cartoonish black and white drawing of a PowerLine Webcast 3 adapter.\n",
      "Audio content written to file \"./data/audio/output.mp3\"\n",
      "21.48\n",
      "Prompt: A close-up, roughly sketched, cartoonish black and white drawing of a PowerLine Webcast 3 adapter.\n",
      "\n",
      "Prompt: A close-up, roughly sketched, cartoonish black and white drawing of a PowerLine Webcast 3 adapter.\n",
      "\n",
      "Prompt: A close-up, roughly sketched, cartoonish black and white drawing of a PowerLine Webcast 3 adapter.\n",
      "\n",
      "Prompt: A close-up, roughly sketched, cartoonish black and white drawing of a PowerLine Webcast 3 adapter.\n",
      "\n",
      "Prompt: A close-up, roughly sketched, cartoonish black and white drawing of a PowerLine Webcast 3 adapter.\n",
      "\n"
     ]
    },
    {
     "name": "stderr",
     "output_type": "stream",
     "text": [
      "ffmpeg version 7.0.2-static https://johnvansickle.com/ffmpeg/  Copyright (c) 2000-2024 the FFmpeg developers\n",
      "  built with gcc 8 (Debian 8.3.0-6)\n",
      "  configuration: --enable-gpl --enable-version3 --enable-static --disable-debug --disable-ffplay --disable-indev=sndio --disable-outdev=sndio --cc=gcc --enable-fontconfig --enable-frei0r --enable-gnutls --enable-gmp --enable-libgme --enable-gray --enable-libaom --enable-libfribidi --enable-libass --enable-libvmaf --enable-libfreetype --enable-libmp3lame --enable-libopencore-amrnb --enable-libopencore-amrwb --enable-libopenjpeg --enable-librubberband --enable-libsoxr --enable-libspeex --enable-libsrt --enable-libvorbis --enable-libopus --enable-libtheora --enable-libvidstab --enable-libvo-amrwbenc --enable-libvpx --enable-libwebp --enable-libx264 --enable-libx265 --enable-libxml2 --enable-libdav1d --enable-libxvid --enable-libzvbi --enable-libzimg\n",
      "  libavutil      59.  8.100 / 59.  8.100\n",
      "  libavcodec     61.  3.100 / 61.  3.100\n",
      "  libavformat    61.  1.100 / 61.  1.100\n",
      "  libavdevice    61.  1.100 / 61.  1.100\n",
      "  libavfilter    10.  1.100 / 10.  1.100\n",
      "  libswscale      8.  1.100 /  8.  1.100\n",
      "  libswresample   5.  1.100 /  5.  1.100\n",
      "  libpostproc    58.  1.100 / 58.  1.100\n",
      "Input #0, avi, from 'video.avi':\n",
      "  Metadata:\n",
      "    software        : Lavf59.27.100\n",
      "  Duration: 00:00:20.00, start: 0.000000, bitrate: 3246 kb/s\n",
      "  Stream #0:0: Video: rawvideo (I420 / 0x30323449), yuv420p, 768x1408, 0.25 fps, 0.25 tbr, 0.25 tbn\n",
      "Stream mapping:\n",
      "  Stream #0:0 -> #0:0 (rawvideo (native) -> h264 (libx264))\n",
      "Press [q] to stop, [?] for help\n",
      "[libx264 @ 0x20c06400] using cpu capabilities: MMX2 SSE2Fast SSSE3 SSE4.2 AVX FMA3 BMI2 AVX2\n",
      "[libx264 @ 0x20c06400] profile High, level 3.2, 4:2:0, 8-bit\n",
      "[libx264 @ 0x20c06400] 264 - core 164 r3191 4613ac3 - H.264/MPEG-4 AVC codec - Copyleft 2003-2024 - http://www.videolan.org/x264.html - options: cabac=1 ref=3 deblock=1:0:0 analyse=0x3:0x113 me=hex subme=7 psy=1 psy_rd=1.00:0.00 mixed_ref=1 me_range=16 chroma_me=1 trellis=1 8x8dct=1 cqm=0 deadzone=21,11 fast_pskip=1 chroma_qp_offset=-2 threads=6 lookahead_threads=1 sliced_threads=0 nr=0 decimate=1 interlaced=0 bluray_compat=0 constrained_intra=0 bframes=3 b_pyramid=2 b_adapt=1 b_bias=0 direct=1 weightb=1 open_gop=0 weightp=2 keyint=250 keyint_min=1 scenecut=40 intra_refresh=0 rc_lookahead=40 rc=crf mbtree=1 crf=23.0 qcomp=0.60 qpmin=0 qpmax=69 qpstep=4 ip_ratio=1.40 aq=1:1.00\n",
      "Output #0, mp4, to 'video.mp4':\n",
      "  Metadata:\n",
      "    software        : Lavf59.27.100\n",
      "    encoder         : Lavf61.1.100\n",
      "  Stream #0:0: Video: h264 (avc1 / 0x31637661), yuv420p(progressive), 768x1408, q=2-31, 0.25 fps, 16384 tbn\n",
      "      Metadata:\n",
      "        encoder         : Lavc61.3.100 libx264\n",
      "      Side data:\n",
      "        cpb: bitrate max/min/avg: 0/0/0 buffer size: 0 vbv_delay: N/A\n",
      "[out#0/mp4 @ 0x20c0a7c0] video:331KiB audio:0KiB subtitle:0KiB other streams:0KiB global headers:0KiB muxing overhead: 0.261464%\n",
      "frame=    5 fps=0.0 q=-1.0 Lsize=     332KiB time=00:00:12.00 bitrate= 226.8kbits/s speed=47.1x    \n",
      "[libx264 @ 0x20c06400] frame I:1     Avg QP: 7.06  size: 49625\n",
      "[libx264 @ 0x20c06400] frame P:4     Avg QP: 9.33  size: 72233\n",
      "[libx264 @ 0x20c06400] mb I  I16..4: 63.5% 24.7% 11.9%\n",
      "[libx264 @ 0x20c06400] mb P  I16..4: 27.7% 12.3% 16.0%  P16..4: 18.7%  1.3%  1.8%  0.0%  0.0%    skip:22.2%\n",
      "[libx264 @ 0x20c06400] 8x8 transform intra:22.8% inter:45.6%\n",
      "[libx264 @ 0x20c06400] coded y,uvDC,uvAC intra: 32.3% 47.8% 42.5% inter: 6.0% 17.1% 11.2%\n",
      "[libx264 @ 0x20c06400] i16 v,h,dc,p: 92%  5%  2%  0%\n",
      "[libx264 @ 0x20c06400] i8 v,h,dc,ddl,ddr,vr,hd,vl,hu: 10%  5% 75%  3%  3%  1%  1%  0%  1%\n",
      "[libx264 @ 0x20c06400] i4 v,h,dc,ddl,ddr,vr,hd,vl,hu: 23% 13% 25%  7%  6%  2% 12%  3%  9%\n",
      "[libx264 @ 0x20c06400] i8c dc,h,v,p: 79%  8% 11%  1%\n",
      "[libx264 @ 0x20c06400] Weighted P-Frames: Y:0.0% UV:0.0%\n",
      "[libx264 @ 0x20c06400] ref P L0: 37.0%  0.8% 53.6%  8.7%\n",
      "[libx264 @ 0x20c06400] kb/s:135.42\n",
      "ffmpeg version 7.0.2-static https://johnvansickle.com/ffmpeg/  Copyright (c) 2000-2024 the FFmpeg developers\n",
      "  built with gcc 8 (Debian 8.3.0-6)\n",
      "  configuration: --enable-gpl --enable-version3 --enable-static --disable-debug --disable-ffplay --disable-indev=sndio --disable-outdev=sndio --cc=gcc --enable-fontconfig --enable-frei0r --enable-gnutls --enable-gmp --enable-libgme --enable-gray --enable-libaom --enable-libfribidi --enable-libass --enable-libvmaf --enable-libfreetype --enable-libmp3lame --enable-libopencore-amrnb --enable-libopencore-amrwb --enable-libopenjpeg --enable-librubberband --enable-libsoxr --enable-libspeex --enable-libsrt --enable-libvorbis --enable-libopus --enable-libtheora --enable-libvidstab --enable-libvo-amrwbenc --enable-libvpx --enable-libwebp --enable-libx264 --enable-libx265 --enable-libxml2 --enable-libdav1d --enable-libxvid --enable-libzvbi --enable-libzimg\n",
      "  libavutil      59.  8.100 / 59.  8.100\n",
      "  libavcodec     61.  3.100 / 61.  3.100\n",
      "  libavformat    61.  1.100 / 61.  1.100\n",
      "  libavdevice    61.  1.100 / 61.  1.100\n",
      "  libavfilter    10.  1.100 / 10.  1.100\n",
      "  libswscale      8.  1.100 /  8.  1.100\n",
      "  libswresample   5.  1.100 /  5.  1.100\n",
      "  libpostproc    58.  1.100 / 58.  1.100\n",
      "Input #0, mov,mp4,m4a,3gp,3g2,mj2, from 'video.mp4':\n",
      "  Metadata:\n",
      "    major_brand     : isom\n",
      "    minor_version   : 512\n",
      "    compatible_brands: isomiso2avc1mp41\n",
      "    encoder         : Lavf61.1.100\n",
      "  Duration: 00:00:20.00, start: 0.000000, bitrate: 136 kb/s\n",
      "  Stream #0:0[0x1](und): Video: h264 (High) (avc1 / 0x31637661), yuv420p(progressive), 768x1408, 135 kb/s, 0.25 fps, 0.25 tbr, 16384 tbn (default)\n",
      "      Metadata:\n",
      "        handler_name    : VideoHandler\n",
      "        vendor_id       : [0][0][0][0]\n",
      "        encoder         : Lavc61.3.100 libx264\n",
      "[mp3 @ 0x1c62ccc0] Estimating duration from bitrate, this may be inaccurate\n",
      "Input #1, mp3, from './data/audio/output.mp3':\n",
      "  Duration: 00:00:21.48, start: 0.000000, bitrate: 64 kb/s\n",
      "  Stream #1:0: Audio: mp3 (mp3float), 24000 Hz, mono, fltp, 64 kb/s\n",
      "Stream mapping:\n",
      "  Stream #0:0 -> #0:0 (copy)\n",
      "  Stream #1:0 -> #0:1 (mp3 (mp3float) -> aac (native))\n",
      "Press [q] to stop, [?] for help\n",
      "Output #0, mp4, to '0.mp4':\n",
      "  Metadata:\n",
      "    major_brand     : isom\n",
      "    minor_version   : 512\n",
      "    compatible_brands: isomiso2avc1mp41\n",
      "    encoder         : Lavf61.1.100\n",
      "  Stream #0:0(und): Video: h264 (High) (avc1 / 0x31637661), yuv420p(progressive), 768x1408, q=2-31, 135 kb/s, 0.25 fps, 0.25 tbr, 16384 tbn (default)\n",
      "      Metadata:\n",
      "        handler_name    : VideoHandler\n",
      "        vendor_id       : [0][0][0][0]\n",
      "        encoder         : Lavc61.3.100 libx264\n",
      "  Stream #0:1: Audio: aac (LC) (mp4a / 0x6134706D), 24000 Hz, mono, fltp, 69 kb/s\n",
      "      Metadata:\n",
      "        encoder         : Lavc61.3.100 aac\n",
      "[out#0/mp4 @ 0x1c672780] video:331KiB audio:185KiB subtitle:0KiB other streams:0KiB global headers:0KiB muxing overhead: 0.642614%\n",
      "size=     519KiB time=00:00:12.00 bitrate= 354.5kbits/s speed=26.6x    \n",
      "[aac @ 0x1c654740] Qavg: 855.941\n"
     ]
    }
   ],
   "source": [
    "from manual_influencer.tts import synthesize_speech\n",
    "import shutil\n",
    "from pathlib import Path\n",
    "import os\n",
    "\n",
    "folder = './data/visual'\n",
    "for f in os.listdir(folder):\n",
    "    path = os.path.join(folder, f)\n",
    "    if os.path.isfile(path):\n",
    "        os.remove(path)\n",
    "        \n",
    "try:\n",
    "    os.remove('./concatenated.mp4')\n",
    "except:\n",
    "    pass\n",
    "\n",
    "for mp4_file in Path('.').glob('*.mp4'):\n",
    "    try:\n",
    "        os.remove(mp4_file)\n",
    "    except:\n",
    "        pass\n",
    "\n",
    "images = []\n",
    "idx = 0\n",
    "\n",
    "for scene in data['scenes']:\n",
    "    print(scene)\n",
    "    visual = generate(scene['visual'])\n",
    "    synthesize_speech(text=scene['audio'], output_file='./data/audio/output.mp3')\n",
    "    time = get_audio_duration('./data/audio/output.mp3')\n",
    "    for i in range(1, int(time/4+1)):\n",
    "        if i < time:\n",
    "            generate_image(visual, './data/visual/images_00' + str(i) + '.png')\n",
    "    generate_video(image_folder='./data/visual', audio_file='./data/audio/output.mp3', output_file = str(idx) + '.mp4')\n",
    "    idx += 1"
   ]
  },
  {
   "cell_type": "code",
   "execution_count": 9,
   "metadata": {
    "tags": []
   },
   "outputs": [
    {
     "name": "stderr",
     "output_type": "stream",
     "text": [
      "ffmpeg version 7.0.2-static https://johnvansickle.com/ffmpeg/  Copyright (c) 2000-2024 the FFmpeg developers\n",
      "  built with gcc 8 (Debian 8.3.0-6)\n",
      "  configuration: --enable-gpl --enable-version3 --enable-static --disable-debug --disable-ffplay --disable-indev=sndio --disable-outdev=sndio --cc=gcc --enable-fontconfig --enable-frei0r --enable-gnutls --enable-gmp --enable-libgme --enable-gray --enable-libaom --enable-libfribidi --enable-libass --enable-libvmaf --enable-libfreetype --enable-libmp3lame --enable-libopencore-amrnb --enable-libopencore-amrwb --enable-libopenjpeg --enable-librubberband --enable-libsoxr --enable-libspeex --enable-libsrt --enable-libvorbis --enable-libopus --enable-libtheora --enable-libvidstab --enable-libvo-amrwbenc --enable-libvpx --enable-libwebp --enable-libx264 --enable-libx265 --enable-libxml2 --enable-libdav1d --enable-libxvid --enable-libzvbi --enable-libzimg\n",
      "  libavutil      59.  8.100 / 59.  8.100\n",
      "  libavcodec     61.  3.100 / 61.  3.100\n",
      "  libavformat    61.  1.100 / 61.  1.100\n",
      "  libavdevice    61.  1.100 / 61.  1.100\n",
      "  libavfilter    10.  1.100 / 10.  1.100\n",
      "  libswscale      8.  1.100 /  8.  1.100\n",
      "  libswresample   5.  1.100 /  5.  1.100\n",
      "  libpostproc    58.  1.100 / 58.  1.100\n",
      "[mov,mp4,m4a,3gp,3g2,mj2 @ 0x357b7b40] Auto-inserting h264_mp4toannexb bitstream filter\n",
      "Input #0, concat, from 'concat_list.txt':\n",
      "  Duration: N/A, start: -0.042667, bitrate: 211 kb/s\n",
      "  Stream #0:0(und): Video: h264 (High) (avc1 / 0x31637661), yuv420p(progressive), 768x1408, 135 kb/s, 0.25 fps, 0.25 tbr, 16384 tbn\n",
      "      Metadata:\n",
      "        handler_name    : VideoHandler\n",
      "        vendor_id       : [0][0][0][0]\n",
      "        encoder         : Lavc61.3.100 libx264\n",
      "  Stream #0:1(und): Audio: aac (LC) (mp4a / 0x6134706D), 24000 Hz, mono, fltp, 75 kb/s\n",
      "      Metadata:\n",
      "        handler_name    : SoundHandler\n",
      "        vendor_id       : [0][0][0][0]\n",
      "Stream mapping:\n",
      "  Stream #0:0 -> #0:0 (copy)\n",
      "  Stream #0:1 -> #0:1 (copy)\n",
      "Output #0, mp4, to 'concatenated.mp4':\n",
      "  Metadata:\n",
      "    encoder         : Lavf61.1.100\n",
      "  Stream #0:0(und): Video: h264 (High) (avc1 / 0x31637661), yuv420p(progressive), 768x1408, q=2-31, 135 kb/s, 0.25 fps, 0.25 tbr, 16384 tbn\n",
      "      Metadata:\n",
      "        handler_name    : VideoHandler\n",
      "        vendor_id       : [0][0][0][0]\n",
      "        encoder         : Lavc61.3.100 libx264\n",
      "  Stream #0:1(und): Audio: aac (LC) (mp4a / 0x6134706D), 24000 Hz, mono, fltp, 75 kb/s\n",
      "      Metadata:\n",
      "        handler_name    : SoundHandler\n",
      "        vendor_id       : [0][0][0][0]\n",
      "Press [q] to stop, [?] for help\n",
      "[mov,mp4,m4a,3gp,3g2,mj2 @ 0x7fe9b80197c0] Auto-inserting h264_mp4toannexb bitstream filter\n",
      "[out#0/mp4 @ 0x357ba580] video:385KiB audio:256KiB subtitle:0KiB other streams:0KiB global headers:0KiB muxing overhead: 0.636595%\n",
      "size=     645KiB time=00:00:16.04 bitrate= 329.6kbits/s speed= 574x    \n"
     ]
    }
   ],
   "source": [
    "from pathlib import Path\n",
    "\n",
    "ml = []\n",
    "\n",
    "for mp4_file in Path('.').glob('*.mp4'):\n",
    "    ml.append(mp4_file)\n",
    "    \n",
    "concat_videos(ml)"
   ]
  }
 ],
 "metadata": {
  "environment": {
   "kernel": "conda-base-py",
   "name": "workbench-notebooks.m129",
   "type": "gcloud",
   "uri": "us-docker.pkg.dev/deeplearning-platform-release/gcr.io/workbench-notebooks:m129"
  },
  "kernelspec": {
   "display_name": "Python 3 (ipykernel)",
   "language": "python",
   "name": "conda-base-py"
  },
  "language_info": {
   "codemirror_mode": {
    "name": "ipython",
    "version": 3
   },
   "file_extension": ".py",
   "mimetype": "text/x-python",
   "name": "python",
   "nbconvert_exporter": "python",
   "pygments_lexer": "ipython3",
   "version": "3.10.16"
  }
 },
 "nbformat": 4,
 "nbformat_minor": 4
}
